<svg xmlns="http://www.w3.org/2000/svg" viewBox="0 0 900 1200" role="img" aria-label="Blue and white custom cake">
  <defs>
    <linearGradient id="bg" x1="0" x2="1" y1="0" y2="1">
      <stop offset="0" stop-color="#f7fbff"/>
      <stop offset=".62" stop-color="#dcebf5"/>
      <stop offset="1" stop-color="#f6d8dd"/>
    </linearGradient>
  </defs>
  <rect width="900" height="1200" fill="url(#bg)"/>
  <ellipse cx="450" cy="910" rx="310" ry="88" fill="#4a2c25" opacity=".13"/>
  <path d="M250 405h500v520c0 110-500 110-500 0z" fill="#ffffff"/>
  <ellipse cx="500" cy="405" rx="250" ry="78" fill="#f7fbff"/>
  <path d="M250 430c120 72 220 72 500 0v170c-152 70-322 68-500 0z" fill="#97c0dd"/>
  <path d="M250 690c155 72 312 68 500 0v105c-170 64-340 65-500 0z" fill="#dbe6d4"/>
  <circle cx="385" cy="260" r="45" fill="#97c0dd"/>
  <circle cx="500" cy="240" r="56" fill="#fff"/>
  <circle cx="620" cy="265" r="42" fill="#97c0dd"/>
  <text x="450" y="965" text-anchor="middle" font-family="Georgia, serif" font-size="50" font-weight="700" fill="#28536b">Blue And White</text>
</svg>
