<svg xmlns="http://www.w3.org/2000/svg" viewBox="0 0 900 1200" role="img" aria-label="Heart shaped baked cheesecake">
  <defs>
    <linearGradient id="bg" x1="0" x2="1" y1="0" y2="1">
      <stop offset="0" stop-color="#fffaf5"/>
      <stop offset=".55" stop-color="#f6d8dd"/>
      <stop offset="1" stop-color="#dbe6d4"/>
    </linearGradient>
  </defs>
  <rect width="900" height="1200" fill="url(#bg)"/>
  <ellipse cx="450" cy="910" rx="330" ry="90" fill="#4a2c25" opacity=".15"/>
  <path d="M450 755C235 598 185 467 252 357c58-96 174-83 248 20 74-103 190-116 248-20 67 110 17 241-198 398-30 22-70 22-100 0z" fill="#fff8ec"/>
  <path d="M450 707C282 582 240 480 290 398c43-71 128-62 183 14 55-76 140-85 183-14 50 82 8 184-160 309-24 18-62 18-86 0z" fill="#f4c15e"/>
  <path d="M292 607c95 72 212 91 396 0-22 46-59 93-121 145-34 28-101 75-117 75s-83-47-117-75c-62-52-99-99-121-145z" fill="#c9833b"/>
  <circle cx="292" cy="340" r="26" fill="#c69b54"/>
  <circle cx="716" cy="364" r="18" fill="#b44c63"/>
  <text x="450" y="190" text-anchor="middle" font-family="Georgia, serif" font-size="60" font-weight="700" fill="#4a2c25">Baked Cheesecake</text>
</svg>
