<svg xmlns="http://www.w3.org/2000/svg" viewBox="0 0 900 1200" role="img" aria-label="Pink custom character cake">
  <defs>
    <linearGradient id="bg" x1="0" x2="1" y1="0" y2="1">
      <stop offset="0" stop-color="#fff7f7"/>
      <stop offset="0.55" stop-color="#f5d5dc"/>
      <stop offset="1" stop-color="#dbe6d4"/>
    </linearGradient>
    <linearGradient id="cake" x1="0" x2="0" y1="0" y2="1">
      <stop offset="0" stop-color="#fffefd"/>
      <stop offset="1" stop-color="#ffd9e3"/>
    </linearGradient>
  </defs>
  <rect width="900" height="1200" fill="url(#bg)"/>
  <circle cx="700" cy="170" r="46" fill="#c69b54" opacity=".72"/>
  <ellipse cx="450" cy="900" rx="310" ry="82" fill="#4a2c25" opacity=".16"/>
  <path d="M250 410h500v510c0 110-500 110-500 0z" fill="url(#cake)"/>
  <ellipse cx="500" cy="410" rx="250" ry="80" fill="#fff"/>
  <path d="M250 410c60 95 140 15 210 74 72 62 152 62 290-74v112c-98 88-215 96-340 22-66-39-105 48-160-18z" fill="#f4aabd"/>
  <rect x="336" y="245" width="328" height="230" rx="112" fill="#f9b8cd"/>
  <circle cx="382" cy="290" r="62" fill="#f9b8cd"/>
  <circle cx="618" cy="290" r="62" fill="#f9b8cd"/>
  <circle cx="440" cy="350" r="14" fill="#201817"/>
  <circle cx="560" cy="350" r="14" fill="#201817"/>
  <ellipse cx="500" cy="388" rx="62" ry="38" fill="#ffdbe5"/>
  <circle cx="475" cy="388" r="8" fill="#201817"/>
  <circle cx="525" cy="388" r="8" fill="#201817"/>
  <rect x="330" y="660" width="340" height="78" rx="39" fill="#fff9f7"/>
  <text x="450" y="710" text-anchor="middle" font-family="Georgia, serif" font-size="42" font-weight="700" fill="#b44c63">Custom Cake</text>
</svg>
