<svg xmlns="http://www.w3.org/2000/svg" viewBox="0 0 900 1200" role="img" aria-label="Chocolate overload cake">
  <defs>
    <linearGradient id="bg" x1="0" x2="1" y1="0" y2="1">
      <stop offset="0" stop-color="#fff9f7"/>
      <stop offset=".5" stop-color="#ead7cf"/>
      <stop offset="1" stop-color="#dbe6d4"/>
    </linearGradient>
    <linearGradient id="choc" x1="0" x2="0" y1="0" y2="1">
      <stop offset="0" stop-color="#6b3a2f"/>
      <stop offset="1" stop-color="#2a1714"/>
    </linearGradient>
  </defs>
  <rect width="900" height="1200" fill="url(#bg)"/>
  <ellipse cx="450" cy="920" rx="320" ry="88" fill="#201817" opacity=".18"/>
  <path d="M245 420h510v510c0 120-510 120-510 0z" fill="url(#choc)"/>
  <ellipse cx="500" cy="420" rx="255" ry="78" fill="#8b4c3d"/>
  <path d="M245 420c60 115 90 28 132 110 40 79 117-8 155 69 44 89 105-61 152 20 29 50 60 7 71-199z" fill="#3a201b"/>
  <rect x="305" y="245" width="140" height="210" rx="18" transform="rotate(-12 375 350)" fill="#5d2f27"/>
  <rect x="520" y="238" width="122" height="205" rx="18" transform="rotate(14 581 341)" fill="#f4d4a3"/>
  <circle cx="470" cy="360" r="54" fill="#fff4e9"/>
  <circle cx="470" cy="360" r="32" fill="#b44c63"/>
  <text x="450" y="725" text-anchor="middle" font-family="Georgia, serif" font-size="58" font-weight="700" fill="#fff9f7">Chocolate</text>
  <text x="450" y="790" text-anchor="middle" font-family="Georgia, serif" font-size="48" font-weight="700" fill="#f6d8dd">Overload</text>
</svg>
